<svg width="382" height="302" viewBox="65 105 382 302" fill="none" xmlns="http://www.w3.org/2000/svg">
<path d="M308.794 407L290.04 384.382C279.021 390.328 267.261 394.895 254.759 398.08C242.468 401.478 229.648 403.177 216.298 403.177C195.32 403.177 175.719 399.354 157.495 391.709C139.272 383.851 123.167 373.126 109.182 359.534C95.408 345.942 84.601 330.12 76.7606 312.068C68.9202 294.015 65 274.689 65 254.089C65 233.488 68.9202 214.162 76.7606 196.11C84.601 178.058 95.408 162.236 109.182 148.643C123.167 135.051 139.272 124.432 157.495 116.787C175.719 108.929 195.32 105 216.298 105C237.277 105 256.878 108.929 275.101 116.787C293.325 124.432 309.323 135.051 323.097 148.643C337.083 162.236 347.996 178.058 355.836 196.11C363.676 214.162 367.596 233.488 367.596 254.089C367.596 273.203 364.1 291.361 357.107 308.563C350.326 325.553 340.897 340.632 328.818 353.8L373 407H308.794ZM216.298 347.747C229.436 347.747 241.938 345.092 253.805 339.783L182.606 254.089H246.176L291.312 308.245C296.609 300.599 300.635 292.21 303.39 283.078C306.357 273.946 307.84 264.283 307.84 254.089C307.84 236.674 303.708 220.958 295.444 206.941C287.391 192.712 276.479 181.456 262.705 173.173C248.931 164.678 233.462 160.43 216.298 160.43C199.134 160.43 183.559 164.678 169.574 173.173C155.8 181.456 144.887 192.712 136.835 206.941C128.783 220.958 124.756 236.674 124.756 254.089C124.756 271.291 128.783 287.007 136.835 301.236C144.887 315.466 155.8 326.828 169.574 335.323C183.559 343.605 199.134 347.747 216.298 347.747Z" fill="#1E2433"/>
<rect x="384" y="344" width="63" height="63" fill="#00ADB5"/>
</svg>
